<svg xmlns="http://www.w3.org/2000/svg" xmlns:xlink="http://www.w3.org/1999/xlink" width="500" zoomAndPan="magnify" viewBox="0 0 375 374.999991" height="500" preserveAspectRatio="xMidYMid meet" version="1.0"><defs><g/><clipPath id="53e3e769c2"><rect x="0" width="238" y="0" height="105"/></clipPath><clipPath id="0e30b01ae9"><path d="M 0.078125 25 L 34 25 L 34 64 L 0.078125 64 Z M 0.078125 25 " clip-rule="nonzero"/></clipPath><clipPath id="b60582c7d9"><rect x="0" width="237" y="0" height="105"/></clipPath><clipPath id="0d018fac68"><path d="M 37 41 L 70.800781 41 L 70.800781 80 L 37 80 Z M 37 41 " clip-rule="nonzero"/></clipPath><clipPath id="8bdfcc32c4"><rect x="0" width="71" y="0" height="105"/></clipPath></defs><g transform="matrix(1, 0, 0, 1, 68, 149)"><g clip-path="url(#53e3e769c2)"><g fill="#1e1e1e" fill-opacity="1"><g transform="translate(0.66446, 78.87033)"><g><path d="M 13.667969 -50.417969 L 4.105469 -50.417969 L 4.105469 0 L 37.671875 0 L 37.671875 -8.566406 L 13.667969 -8.566406 Z M 13.667969 -50.417969 "/></g></g></g><g fill="#1e1e1e" fill-opacity="1"><g transform="translate(35.359612, 78.87033)"><g><path d="M 20.179688 0.851562 C 28.960938 0.851562 35.265625 -3.964844 37.175781 -11.328125 L 28.539062 -11.328125 C 27.261719 -8.074219 24.5 -6.089844 20.253906 -6.089844 C 15.082031 -6.089844 11.472656 -9.0625 10.761719 -15.507812 L 38.097656 -15.507812 L 38.097656 -17.632812 C 38.097656 -29.246094 31.226562 -37.390625 20.039062 -37.390625 C 9.207031 -37.390625 1.984375 -29.742188 1.984375 -18.269531 C 1.984375 -6.585938 9.417969 0.851562 20.179688 0.851562 Z M 10.835938 -21.738281 C 11.683594 -27.6875 15.226562 -30.449219 19.96875 -30.449219 C 25.28125 -30.449219 28.464844 -26.910156 29.175781 -21.738281 Z M 10.835938 -21.738281 "/></g></g></g><g fill="#1e1e1e" fill-opacity="1"><g transform="translate(71.470905, 78.87033)"><g><path d="M 45.320312 -37.390625 C 40.222656 -37.390625 36.398438 -34.484375 33.988281 -30.589844 C 32.148438 -34.769531 28.253906 -37.390625 22.660156 -37.390625 C 17.84375 -37.390625 14.445312 -34.839844 12.25 -31.300781 L 12.25 -36.539062 L 3.613281 -36.539062 L 3.613281 0 L 12.535156 0 L 12.535156 -20.109375 C 12.535156 -26.980469 16.285156 -29.671875 20.039062 -29.671875 C 24.289062 -29.671875 26.414062 -27.40625 26.414062 -22.730469 L 26.414062 0 L 35.265625 0 L 35.265625 -20.109375 C 35.265625 -26.980469 38.945312 -29.671875 42.839844 -29.671875 C 47.089844 -29.671875 49.144531 -27.40625 49.144531 -22.730469 L 49.144531 0 L 58.066406 0 L 58.066406 -24.148438 C 58.066406 -32.21875 53.464844 -37.390625 45.320312 -37.390625 Z M 45.320312 -37.390625 "/></g></g></g><g fill="#1e1e1e" fill-opacity="1"><g transform="translate(129.03675, 78.87033)"><g><path d="M 20.605469 0.851562 C 31.722656 0.851562 39.160156 -6.65625 39.160156 -18.269531 C 39.160156 -29.882812 31.722656 -37.390625 20.605469 -37.390625 C 9.488281 -37.390625 1.984375 -29.882812 1.984375 -18.269531 C 1.984375 -6.65625 9.488281 0.851562 20.605469 0.851562 Z M 20.605469 -6.515625 C 14.800781 -6.515625 11.117188 -10.550781 11.117188 -18.269531 C 11.117188 -25.988281 14.800781 -30.023438 20.605469 -30.023438 C 26.34375 -30.023438 30.09375 -25.988281 30.09375 -18.269531 C 30.09375 -10.550781 26.34375 -6.515625 20.605469 -6.515625 Z M 20.605469 -6.515625 "/></g></g></g><g fill="#1e1e1e" fill-opacity="1"><g transform="translate(166.068527, 78.87033)"><g><path d="M 23.652344 -37.390625 C 18.480469 -37.390625 14.585938 -34.769531 12.25 -31.300781 L 12.25 -36.539062 L 3.613281 -36.539062 L 3.613281 0 L 12.535156 0 L 12.535156 -20.464844 C 12.535156 -26.980469 16.78125 -29.671875 20.675781 -29.671875 C 25.210938 -29.671875 27.546875 -27.40625 27.546875 -22.730469 L 27.546875 0 L 36.46875 0 L 36.46875 -24.21875 C 36.46875 -32.929688 31.300781 -37.390625 23.652344 -37.390625 Z M 23.652344 -37.390625 "/></g></g></g><g fill="#1e1e1e" fill-opacity="1"><g transform="translate(202.038213, 78.87033)"><g><path d="M 17.988281 0.992188 C 28.183594 0.992188 34.203125 -3.117188 34.203125 -10.480469 C 34.203125 -16.78125 30.308594 -20.039062 21.527344 -21.597656 L 16.925781 -22.304688 C 12.957031 -23.015625 10.835938 -24.078125 10.835938 -26.765625 C 10.835938 -29.386719 12.886719 -31.015625 17.207031 -31.015625 C 21.808594 -31.015625 24.714844 -29.671875 24.925781 -24.996094 L 33.351562 -24.996094 C 33.070312 -32.503906 28.464844 -37.390625 17.207031 -37.390625 C 7.433594 -37.390625 2.054688 -33.210938 2.054688 -26.34375 C 2.054688 -20.109375 6.160156 -16.640625 14.019531 -15.296875 L 18.199219 -14.585938 C 23.722656 -13.667969 25.351562 -12.390625 25.351562 -9.773438 C 25.351562 -7.011719 23.296875 -5.382812 18.128906 -5.382812 C 12.816406 -5.382812 10.480469 -7.011719 9.984375 -11.613281 L 1.273438 -11.613281 C 1.839844 -2.761719 7.578125 0.992188 17.988281 0.992188 Z M 17.988281 0.992188 "/></g></g></g></g></g><g transform="matrix(1, 0, 0, 1, 70, 121)"><g clip-path="url(#b60582c7d9)"><g fill="#f8ff6e" fill-opacity="1"><g transform="translate(236.331486, 26.119273)"><g><path d="M -13.667969 50.417969 L -4.105469 50.417969 L -4.105469 0 L -37.671875 0 L -37.671875 8.566406 L -13.667969 8.566406 Z M -13.667969 50.417969 "/></g></g></g><g fill="#f8ff6e" fill-opacity="1"><g transform="translate(201.636333, 26.119273)"><g><path d="M -20.179688 -0.851562 C -28.960938 -0.851562 -35.265625 3.964844 -37.175781 11.328125 L -28.539062 11.328125 C -27.261719 8.074219 -24.5 6.089844 -20.253906 6.089844 C -15.082031 6.089844 -11.472656 9.0625 -10.761719 15.507812 L -38.097656 15.507812 L -38.097656 17.632812 C -38.097656 29.246094 -31.226562 37.390625 -20.039062 37.390625 C -9.207031 37.390625 -1.984375 29.742188 -1.984375 18.269531 C -1.984375 6.585938 -9.417969 -0.851562 -20.179688 -0.851562 Z M -10.835938 21.738281 C -11.683594 27.6875 -15.226562 30.449219 -19.96875 30.449219 C -25.28125 30.449219 -28.464844 26.910156 -29.175781 21.738281 Z M -10.835938 21.738281 "/></g></g></g><g fill="#f8ff6e" fill-opacity="1"><g transform="translate(165.52504, 26.119273)"><g><path d="M -45.320312 37.390625 C -40.222656 37.390625 -36.398438 34.484375 -33.988281 30.589844 C -32.148438 34.769531 -28.253906 37.390625 -22.660156 37.390625 C -17.84375 37.390625 -14.445312 34.839844 -12.25 31.300781 L -12.25 36.539062 L -3.613281 36.539062 L -3.613281 0 L -12.535156 0 L -12.535156 20.109375 C -12.535156 26.980469 -16.285156 29.671875 -20.039062 29.671875 C -24.289062 29.671875 -26.414062 27.40625 -26.414062 22.730469 L -26.414062 0 L -35.265625 0 L -35.265625 20.109375 C -35.265625 26.980469 -38.945312 29.671875 -42.839844 29.671875 C -47.089844 29.671875 -49.144531 27.40625 -49.144531 22.730469 L -49.144531 0 L -58.066406 0 L -58.066406 24.148438 C -58.066406 32.21875 -53.464844 37.390625 -45.320312 37.390625 Z M -45.320312 37.390625 "/></g></g></g><g fill="#f8ff6e" fill-opacity="1"><g transform="translate(107.959196, 26.119273)"><g><path d="M -20.605469 -0.851562 C -31.722656 -0.851562 -39.160156 6.65625 -39.160156 18.269531 C -39.160156 29.882812 -31.722656 37.390625 -20.605469 37.390625 C -9.488281 37.390625 -1.984375 29.882812 -1.984375 18.269531 C -1.984375 6.65625 -9.488281 -0.851562 -20.605469 -0.851562 Z M -20.605469 6.515625 C -14.800781 6.515625 -11.117188 10.550781 -11.117188 18.269531 C -11.117188 25.988281 -14.800781 30.023438 -20.605469 30.023438 C -26.34375 30.023438 -30.09375 25.988281 -30.09375 18.269531 C -30.09375 10.550781 -26.34375 6.515625 -20.605469 6.515625 Z M -20.605469 6.515625 "/></g></g></g><g fill="#f8ff6e" fill-opacity="1"><g transform="translate(70.927418, 26.119273)"><g><path d="M -23.652344 37.390625 C -18.480469 37.390625 -14.585938 34.769531 -12.25 31.300781 L -12.25 36.539062 L -3.613281 36.539062 L -3.613281 0 L -12.535156 0 L -12.535156 20.464844 C -12.535156 26.980469 -16.78125 29.671875 -20.675781 29.671875 C -25.210938 29.671875 -27.546875 27.40625 -27.546875 22.730469 L -27.546875 0 L -36.46875 0 L -36.46875 24.21875 C -36.46875 32.929688 -31.300781 37.390625 -23.652344 37.390625 Z M -23.652344 37.390625 "/></g></g></g><g clip-path="url(#0e30b01ae9)"><g fill="#f8ff6e" fill-opacity="1"><g transform="translate(34.957732, 26.119273)"><g><path d="M -17.988281 -0.992188 C -28.183594 -0.992188 -34.203125 3.117188 -34.203125 10.480469 C -34.203125 16.78125 -30.308594 20.039062 -21.527344 21.597656 L -16.925781 22.304688 C -12.957031 23.015625 -10.835938 24.078125 -10.835938 26.765625 C -10.835938 29.386719 -12.886719 31.015625 -17.207031 31.015625 C -21.808594 31.015625 -24.714844 29.671875 -24.925781 24.996094 L -33.351562 24.996094 C -33.070312 32.503906 -28.464844 37.390625 -17.207031 37.390625 C -7.433594 37.390625 -2.054688 33.210938 -2.054688 26.34375 C -2.054688 20.109375 -6.160156 16.640625 -14.019531 15.296875 L -18.199219 14.585938 C -23.722656 13.667969 -25.351562 12.390625 -25.351562 9.773438 C -25.351562 7.011719 -23.296875 5.382812 -18.128906 5.382812 C -12.816406 5.382812 -10.480469 7.011719 -9.984375 11.613281 L -1.273438 11.613281 C -1.839844 2.761719 -7.578125 -0.992188 -17.988281 -0.992188 Z M -17.988281 -0.992188 "/></g></g></g></g></g></g><g transform="matrix(1, 0, 0, 1, 234, 149)"><g clip-path="url(#8bdfcc32c4)"><g fill="#1e1e1e" fill-opacity="1"><g transform="translate(0.20144, 78.87033)"><g><path d="M 23.652344 -37.390625 C 18.480469 -37.390625 14.585938 -34.769531 12.25 -31.300781 L 12.25 -36.539062 L 3.613281 -36.539062 L 3.613281 0 L 12.535156 0 L 12.535156 -20.464844 C 12.535156 -26.980469 16.78125 -29.671875 20.675781 -29.671875 C 25.210938 -29.671875 27.546875 -27.40625 27.546875 -22.730469 L 27.546875 0 L 36.46875 0 L 36.46875 -24.21875 C 36.46875 -32.929688 31.300781 -37.390625 23.652344 -37.390625 Z M 23.652344 -37.390625 "/></g></g></g><g clip-path="url(#0d018fac68)"><g fill="#1e1e1e" fill-opacity="1"><g transform="translate(36.17112, 78.87033)"><g><path d="M 17.988281 0.992188 C 28.183594 0.992188 34.203125 -3.117188 34.203125 -10.480469 C 34.203125 -16.78125 30.308594 -20.039062 21.527344 -21.597656 L 16.925781 -22.304688 C 12.957031 -23.015625 10.835938 -24.078125 10.835938 -26.765625 C 10.835938 -29.386719 12.886719 -31.015625 17.207031 -31.015625 C 21.808594 -31.015625 24.714844 -29.671875 24.925781 -24.996094 L 33.351562 -24.996094 C 33.070312 -32.503906 28.464844 -37.390625 17.207031 -37.390625 C 7.433594 -37.390625 2.054688 -33.210938 2.054688 -26.34375 C 2.054688 -20.109375 6.160156 -16.640625 14.019531 -15.296875 L 18.199219 -14.585938 C 23.722656 -13.667969 25.351562 -12.390625 25.351562 -9.773438 C 25.351562 -7.011719 23.296875 -5.382812 18.128906 -5.382812 C 12.816406 -5.382812 10.480469 -7.011719 9.984375 -11.613281 L 1.273438 -11.613281 C 1.839844 -2.761719 7.578125 0.992188 17.988281 0.992188 Z M 17.988281 0.992188 "/></g></g></g></g></g></g></svg>